<svg  xmlns="http://www.w3.org/2000/svg">
 
<symbol id="t" viewBox="0 0 36.000000 36.000000">
<g transform="translate(0.000000,36.000000) scale(0.100000,-0.100000)"
   >
<path d="M102 339 c-122 -62 -133 -231 -21 -306 150 -99 337 61 259 222 -44
91 -151 129 -238 84z m168 -98 c0 -31 -34 -151 -43 -151 -6 0 -19 7 -29 16
-14 14 -20 14 -33 4 -13 -11 -15 -9 -15 13 0 17 13 37 43 62 l42 36 -51 -30
c-53 -32 -79 -37 -104 -21 -12 7 -11 10 5 16 11 5 52 20 90 35 75 30 95 34 95
20z"/>
</g>
</symbol>
<symbol id="vk" viewBox="0 0 36.000000 36.000000" >
<g transform="translate(0.000000,36.000000) scale(0.100000,-0.100000)"
 >
<path d="M102 339 c-122 -62 -133 -231 -21 -306 150 -99 337 61 259 222 -44
91 -151 129 -238 84z m19 -124 c26 -44 32 -44 27 0 -4 33 -2 35 24 35 24 0 28
-4 28 -30 0 -16 4 -30 10 -30 5 0 16 14 25 30 11 21 23 30 40 30 34 0 38 -13
14 -44 -22 -27 -21 -35 7 -73 16 -23 16 -23 -16 -23 -19 0 -42 7 -52 16 -16
16 -18 16 -24 0 -11 -29 -59 -20 -93 19 -36 42 -63 90 -54 99 16 16 45 3 64
-29z"/>
</g>
</symbol>
<symbol id="f">
<g transform="translate(0.000000,36.000000) scale(0.100000,-0.100000)"
>
<path d="M102 339 c-53 -27 -93 -83 -99 -143 -10 -85 57 -175 145 -192 l32 -6
0 71 c0 64 -2 71 -20 71 -27 0 -27 40 0 47 13 3 20 14 20 29 0 33 34 64 71 64
26 0 30 -3 27 -22 -2 -15 -11 -24 -25 -26 -30 -4 -32 -42 -3 -42 15 0 20 -7
20 -25 0 -18 -5 -25 -20 -25 -18 0 -20 -7 -20 -65 0 -36 3 -65 8 -65 23 0 83
55 102 95 42 87 5 191 -82 234 -56 27 -102 27 -156 0z"/>
</g>
</symbol>
<symbol id="in">
<g transform="translate(0.000000,36.000000) scale(0.100000,-0.100000)"
>
<path d="M102 339 c-122 -62 -133 -231 -21 -306 150 -99 337 61 259 222 -44
91 -151 129 -238 84z m166 -71 c16 -16 16 -160 0 -176 -7 -7 -42 -12 -88 -12
-46 0 -81 5 -88 12 -16 16 -16 160 0 176 16 16 160 16 176 0z"/>
<path d="M104 247 c-3 -8 -4 -43 -2 -78 l3 -64 75 0 75 0 0 75 0 75 -73 3
c-55 2 -74 -1 -78 -11z m140 -18 c-3 -5 -10 -7 -15 -3 -5 3 -7 10 -3 15 3 5
10 7 15 3 5 -3 7 -10 3 -15z m-26 -11 c15 -15 15 -61 0 -76 -15 -15 -61 -15
-76 0 -15 15 -15 61 0 76 7 7 24 12 38 12 14 0 31 -5 38 -12z"/>
<path d="M154 196 c-10 -26 4 -48 28 -44 17 2 23 10 23 28 0 18 -6 26 -23 28
-13 2 -25 -3 -28 -12z"/>
</g>
</symbol>
</svg>